<?xml version="1.0" encoding="utf-8"?>
<!-- Generator: Adobe Illustrator 16.0.0, SVG Export Plug-In . SVG Version: 6.00 Build 0)  -->
<!DOCTYPE svg PUBLIC "-//W3C//DTD SVG 1.1//EN" "http://www.w3.org/Graphics/SVG/1.1/DTD/svg11.dtd">
<svg version="1.1" id="Layer_1" xmlns="http://www.w3.org/2000/svg" xmlns:xlink="http://www.w3.org/1999/xlink" x="0px" y="0px"
	 width="512px" height="512px" viewBox="0 0 512 512" enable-background="new 0 0 512 512" xml:space="preserve">
<rect x="-2685" y="-553" display="none" fill="#B4CCDB" stroke="#1D1D1B" stroke-miterlimit="10" width="5356" height="3016"/>
<g>
	<g>
		<path fill="#B7B7B7" d="M380.762,149.684c23.783-0.196,43.533,19.169,43.86,43.01c0.323,23.46-19.513,43.563-43.183,43.764
			c-23.982,0.203-43.367-18.99-43.492-43.063C337.821,169.181,356.724,149.882,380.762,149.684z M355.303,192.753
			c-0.145,14.601,11.293,26.269,25.804,26.327c14.229,0.056,26.259-12.037,26.12-26.257c-0.137-13.847-11.709-25.536-25.501-25.758
			C367.148,166.83,355.447,178.207,355.303,192.753z"/>
		<path fill="#B7B7B7" d="M59.305,115.427c132.96,0,265.15,0,397.922,0c0,95.062,0,189.649,0,285.101
			c-132.253,0-264.699,0-397.922,0C59.305,305.98,59.305,211.137,59.305,115.427z M439.668,338.542c0-67.426,0-136.553,0-205.366
			c-121.653,0-242.523,0-362.975,0c0,73.229,0,145.591,0,219.62c42.193-41.303,83.145-81.388,124.436-121.805
			c32.422,25.313,63.923,49.908,95.798,74.794c19.717-16.871,38.813-33.209,56.479-48.326
			C382.822,285.111,411.507,312.072,439.668,338.542z M202.251,253.818c-42.503,42.696-86.674,83.454-127.951,127.053
			c0.769,0.798,1.54,1.597,2.309,2.396c121.152,0,242.304,0,362.997,0c2.973-10.619-0.634-17.818-7.961-24.624
			c-11.633-10.805-22.146-22.803-33.555-33.863c-14.961-14.504-30.33-28.587-46-43.299c-17.173,14.676-35.752,30.553-54.66,46.711
			c-16.256-12.717-31.865-24.937-47.485-37.144C234.3,278.825,218.646,266.616,202.251,253.818z"/>
	</g>
	<g>
		<path fill="#FFFFFF" d="M439.668,338.542c-28.161-26.47-56.846-53.432-86.262-81.083c-17.667,15.117-36.763,31.456-56.479,48.326
			c-31.875-24.886-63.376-49.481-95.798-74.794c-41.291,40.417-82.242,80.502-124.436,121.805c0-74.029,0-146.391,0-219.62
			c120.451,0,241.321,0,362.975,0C439.668,201.989,439.668,271.117,439.668,338.542z M380.762,149.684
			c-24.038,0.198-42.94,19.498-42.814,43.71c0.125,24.074,19.51,43.267,43.492,43.063c23.67-0.201,43.506-20.304,43.183-43.764
			C424.295,168.853,404.545,149.488,380.762,149.684z"/>
		<path fill="#FFFFFF" d="M202.251,253.818c16.396,12.797,32.049,25.007,47.693,37.231c15.62,12.207,31.229,24.426,47.485,37.144
			c18.908-16.159,37.487-32.035,54.66-46.711c15.67,14.712,31.039,28.795,46,43.299c11.408,11.06,21.922,23.058,33.555,33.863
			c7.327,6.806,10.934,14.004,7.961,24.624c-120.693,0-241.845,0-362.997,0c-0.769-0.799-1.54-1.598-2.309-2.396
			C115.577,337.272,159.748,296.515,202.251,253.818z"/>
		<path fill="#FFFFFF" d="M355.303,192.753c0.145-14.547,11.846-25.924,26.423-25.688c13.792,0.223,25.364,11.912,25.501,25.758
			c0.139,14.22-11.891,26.313-26.12,26.257C366.596,219.022,355.158,207.354,355.303,192.753z"/>
	</g>
</g>
</svg>
